<svg id="alamo_logo" data-name="Camada 1" xmlns="http://www.w3.org/2000/svg" viewBox="0 0 2279.4 1047.74">
  <defs>
    <style>
      .cls-1 {
        fill: #2360a5;
      }

      .cls-1, .cls-2 {
        fill-rule: evenodd;
      }

      .cls-2 {
        fill: #fff22d;
      }
    </style>
  </defs>
  <title>alamo</title>
  <path class="cls-1" d="M2242.42,1773.87a147.27,147.27,0,0,0,147.27-147.27V873.4a147.26,147.26,0,0,0-147.27-147.26H257.58A147.27,147.27,0,0,0,110.29,873.4v753.19a147.27,147.27,0,0,0,147.29,147.27H2242.42Z" transform="translate(-110.29 -726.14)"/>
  <path class="cls-2" d="M278.47,1742.38c-79.57,0-135.88-54.77-135.88-132.4V890c0-77.62,56.31-132.38,135.88-132.38H2221.53c79.57,0,135.88,54.76,135.88,132.38v720c0,77.63-56.31,132.4-135.88,132.4ZM2200,1712.51c77.76,0,124.6-44.07,124.6-118.21V905.69c0-74.11-46.84-118.2-124.6-118.2H300c-77.74,0-124.59,44.08-124.59,118.2V1594.3c0,74.14,46.85,118.21,124.59,118.21Z" transform="translate(-110.29 -726.14)"/>
  <path class="cls-2" d="M2046,1459.25c-95.47,0-185.67-49-185.67-155.79s90.2-155.79,185.67-155.79,185.68,49,185.68,155.79S2141.5,1459.25,2046,1459.25ZM434.47,1369.11H656.31l40.39,82.34H827.3L620.93,1047.88H478.71L282.34,1451.45H396.91ZM944.85,1052H844.37v399.47H944.85Zm361,341.61V1233.35c-19.5-76.45-111.64-81.58-163.8-81.58-75.8,0-154.38,12.79-165.52,103.48h98c2.78-17.26,7-45.26,55.72-45.26,25,0,68.07,1.66,68.07,34.5,0,16.7-18.77,21.68-34.08,23.36l-91.72,10.58c-61.89,7.22-107.79,36.7-107.79,94.56,0,61.23,57,86.25,112.67,86.25,66.07,0,101.45-24.5,123.7-42.84,2.09,16.69,3.49,21.13,9,35H1307l-1.12-57.84Zm540-140.74c0-65.1-67.72-90.85-138.87-90.85-58.15,0-84.86,32.83-97.17,47.29-24.64-31.71-48.61-47.29-101.28-47.29-64.34,0-66.49,27.61-78.8,47.08h-1.36v-43.4h-99.89v285.77h104v-170c0-32.27,14.38-50.57,59.53-49.69,43.85.85,45.21,26.86,45.21,51.89v167.82h108.09V1284.21c0-35,8.94-53.59,56.82-52.47,36.23.85,50.56,15.17,47.92,50.24v169.47h95.81v-198.6ZM2046,1213.31c-72.1,0-85.44,52.31-85.44,90.15s13.34,90.13,85.44,90.13,85.47-52.31,85.47-90.13-13.38-90.15-85.47-90.15ZM543.3,1133.92l75,158H472.7Zm650.93,211.27c0,36.17-43.82,58.41-87,58.41-18.77,0-45.2-8.34-45.2-35.59,0-32.27,29.91-39.52,66.07-44.51,40.34-5,56.33-10,66.07-16.16v37.85Zm1074.26-209.1c0,26.42-19.78,41.77-41.88,41.77s-42-15.37-42-41.77,19.78-41.77,42-41.77S2268.49,1109.68,2268.49,1136.09Zm-12,0c0-19.22-13.71-32-29.85-32-16.59,0-29.94,12.81-29.94,32s13.34,32.15,29.94,32v.11C2242.76,1168.25,2256.47,1155.32,2256.47,1136.09ZM2246,1158.54h-11.38l-10.38-18.91h-4.54v18.91H2210v-45h16.82c11.61,0,18.45,3.32,18.45,13.59,0,8.29-4.87,11.28-10.82,11.71l11.48,19.69ZM2235,1126.15c0-4.64-5-5-8.61-5h-6.74V1132h8.5C2232.47,1132,2235,1131.12,2235,1126.15Z" transform="translate(-110.29 -726.14)"/>
</svg>
