<svg id="avis_logo" data-name="Camada 1" xmlns="http://www.w3.org/2000/svg" viewBox="0 0 500 247">
    <defs>
        <style>
            .avis-cls-1 {
                fill: #bf0811;
            }

            .avis-cls-2 {
                fill: #fff;
            }
        </style>
    </defs>
    <title>avis</title>
    <path class="avis-cls-1"
        d="M60,524V277a39.9,39.9,0,0,0,6.25,1q155.67.08,311.34,0,91.21,0,182.41-.06V524c-2.33-.06-4.66-.17-7-.17q-218.55,0-437.09,0C97.29,523.83,78.64,523.94,60,524Zm149.64-48.07c.16-1.6.4-2.88.4-4.17,0-46.31,0-92.62.12-138.94,0-3.89-1.84-4.29-4.89-4.27q-22,.1-44,0c-3,0-4.75.88-6.2,3.74-11.41,22.53-23.08,44.92-34.56,67.41-10.65,20.87-21.15,41.82-31.74,62.72-2.22,4.37-4.55,8.69-7.25,13.83,9.64,0,18.41-1,26.87.25,9.82,1.4,13.93-3.59,17.42-11.22,3.32-7.24,7-14.31,11.07-21.18a8.06,8.06,0,0,1,5.78-3.25c9.48-.33,19-.16,28.48-.11,1.42,0,2.84.31,4.85.54v34.67Zm28-.1c1.56.17,2.52.36,3.48.36,15.32,0,30.65.14,46-.12,1.76,0,4.22-1.81,5.1-3.46,9.25-17.28,18.23-34.7,27.32-52.06q22-42,44-83.91c1.2-2.31,2.27-4.69,3.76-7.77-2.54-.11-4.3-.26-6.05-.26-9.66,0-19.33.09-29-.13-3.41-.08-5.34.89-6.92,4.1q-22.68,46.05-45.66,92c-.73,1.48-1.52,2.95-2.28,4.42a5.38,5.38,0,0,1-1-3.35c0-30.65-.07-61.29.07-91.94,0-3.93-1.12-5.23-5.08-5.13-9.15.23-18.33.38-27.47-.09-5.22-.27-6.33,1.45-6.31,6.41.18,45.14.11,90.27.1,135.41ZM523.39,372.77c4-11.11,7.93-21.85,11.56-32.7.35-1.05-.9-3.5-2-4.07-17.33-8.8-35.26-13.64-54.79-8.1-17.06,4.83-30.4,14-37.5,30.81-7.77,18.38-3.5,37.22,11.49,50.29,6,5.24,12.64,9.78,18.44,15.23,7.42,7,4.77,12.53-2.72,17.22a14.44,14.44,0,0,1-8.54,2.17,103.05,103.05,0,0,1-19.93-3.73c-6.57-2.07-12.71-5.5-19.42-8.51-3.77,11.05-7.6,22-11.1,33-.35,1.1.91,3.54,2.05,4.13a143.64,143.64,0,0,0,17.17,7.88c20.6,7.36,41,9.36,61.1-2.19,18.6-10.7,29.25-34.43,23.61-54.14-3.1-10.82-10.33-18.78-18.66-25.94-4.15-3.57-8.48-7.08-11.92-11.28-5.27-6.43-3.39-13.49,3.92-17.35,6.67-3.52,13.47-3.27,20.22-.47C511.86,367.34,517.22,370,523.39,372.77ZM337.33,476.24c12.56,0,24,.1,35.5-.15,1.21,0,3-1.83,3.46-3.18q12-34.08,23.65-68.27c6.64-19.5,13.06-39.08,19.6-58.62,1.85-5.55,3.78-11.07,5.95-17.4-10.71,0-20.34,0-30,0-8.4,0-8.47,0-11.17,7.93q-12.44,36.56-24.79,73.15c-4.33,12.75-8.78,25.45-13.07,38.21C343.44,457,340.58,466.18,337.33,476.24Z"
        transform="translate(-60 -277)" />
    <path class="avis-cls-2"
        d="M209.64,475.93H176V441.26c-2-.23-3.43-.53-4.85-.54-9.5-.05-19-.22-28.48.11a8.06,8.06,0,0,0-5.78,3.25c-4,6.87-7.75,13.94-11.07,21.18-3.49,7.63-7.6,12.62-17.42,11.22-8.46-1.2-17.23-.25-26.87-.25,2.7-5.14,5-9.46,7.25-13.83,10.59-20.9,21.09-41.85,31.74-62.72,11.48-22.49,23.15-44.88,34.56-67.41,1.45-2.86,3.21-3.75,6.2-3.74q22,.15,44,0c3,0,4.9.38,4.89,4.27-.13,46.32-.09,92.63-.12,138.94C210,473.05,209.8,474.33,209.64,475.93ZM175.8,371.32l-1.29-.46c-6.32,12.21-12.64,24.41-19.51,37.7,7.08,0,12.7.12,18.3-.13.88,0,2.38-1.8,2.39-2.78C175.86,394.21,175.8,382.77,175.8,371.32Z"
        transform="translate(-60 -277)" />
    <path class="avis-cls-2"
        d="M237.64,475.83v-5.56c0-45.14.08-90.27-.1-135.41,0-5,1.09-6.68,6.31-6.41,9.14.47,18.32.32,27.47.09,4-.1,5.1,1.2,5.08,5.13-.14,30.65-.08,61.29-.07,91.94a5.38,5.38,0,0,0,1,3.35c.76-1.47,1.55-2.94,2.28-4.42q22.88-46,45.66-92c1.58-3.21,3.51-4.18,6.92-4.1,9.65.22,19.32.09,29,.13,1.75,0,3.51.15,6.05.26-1.49,3.08-2.56,5.46-3.76,7.77q-22,42-44,83.91c-9.09,17.36-18.07,34.78-27.32,52.06-.88,1.65-3.34,3.43-5.1,3.46-15.32.26-30.65.15-46,.12C240.16,476.19,239.2,476,237.64,475.83Z"
        transform="translate(-60 -277)" />
    <path class="avis-cls-2"
        d="M523.39,372.77c-6.17-2.81-11.53-5.43-17-7.71-6.75-2.8-13.55-3.05-20.22.47-7.31,3.86-9.19,10.92-3.92,17.35,3.44,4.2,7.77,7.71,11.92,11.28,8.33,7.16,15.56,15.12,18.66,25.94,5.64,19.71-5,43.44-23.61,54.14-20.08,11.55-40.5,9.55-61.1,2.19a143.64,143.64,0,0,1-17.17-7.88c-1.14-.59-2.4-3-2.05-4.13,3.5-11.05,7.33-22,11.1-33,6.71,3,12.85,6.44,19.42,8.51a103.05,103.05,0,0,0,19.93,3.73,14.44,14.44,0,0,0,8.54-2.17c7.49-4.69,10.14-10.23,2.72-17.22-5.8-5.45-12.44-10-18.44-15.23-15-13.07-19.26-31.91-11.49-50.29,7.1-16.79,20.44-26,37.5-30.81,19.53-5.54,37.46-.7,54.79,8.1,1.12.57,2.37,3,2,4.07C531.32,350.92,527.37,361.66,523.39,372.77Z"
        transform="translate(-60 -277)" />
    <path class="avis-cls-2"
        d="M337.33,476.24c3.25-10.06,6.11-19.22,9.16-28.32,4.29-12.76,8.74-25.46,13.07-38.21q12.42-36.57,24.79-73.15c2.7-7.93,2.77-7.92,11.17-7.93,9.63,0,19.26,0,30,0-2.17,6.33-4.1,11.85-5.95,17.4-6.54,19.54-13,39.12-19.6,58.62q-11.64,34.2-23.65,68.27c-.47,1.35-2.25,3.16-3.46,3.18C361.36,476.34,349.89,476.24,337.33,476.24Z"
        transform="translate(-60 -277)" />
    <path class="avis-cls-1"
        d="M175.8,371.32c0,11.45.06,22.89-.11,34.33,0,1-1.51,2.74-2.39,2.78-5.6.25-11.22.13-18.3.13,6.87-13.29,13.19-25.49,19.51-37.7Z"
        transform="translate(-60 -277)" />
</svg>