<svg height="512pt" viewBox="0 0 512 512" width="512pt" xmlns="http://www.w3.org/2000/svg"><path d="m241 316c0 8.398438-6.597656 15-15 15h-90c-8.402344 0-15-6.601562-15-15v-30c0-8.402344-6.597656-15-15-15s-15 6.597656-15 15v120c0 8.398438 6.597656 15 15 15s15-6.601562 15-15v-30c0-8.402344 6.597656-15 15-15h90c8.402344 0 15 6.597656 15 15v30c0 8.398438 6.597656 15 15 15s15-6.601562 15-15v-30c0-8.402344 6.597656-15 15-15h90c8.402344 0 15 6.597656 15 15v30c0 8.398438 6.597656 15 15 15s15-6.601562 15-15v-120c0-8.402344-6.597656-15-15-15s-15 6.597656-15 15v30c0 8.398438-6.597656 15-15 15h-90c-8.402344 0-15-6.601562-15-15v-30c0-8.402344-6.597656-15-15-15s-15 6.597656-15 15zm0 0"/><path d="m497 181h-226v62.699219c17.402344 6 30 22.800781 30 42.300781v15h60v-15c0-24.902344 20.097656-45 45-45s45 20.097656 45 45v120c0 24.898438-20.097656 45-45 45s-45-20.101562-45-45v-15h-60v15c0 24.898438-20.097656 45-45 45s-45-20.101562-45-45v-15h-60v15c0 24.898438-20.097656 45-45 45s-45-20.101562-45-45v-120c0-24.902344 20.097656-45 45-45s45 20.097656 45 45v15h60v-15c0-19.5 12.597656-36.300781 30-42.300781v-62.699219h-226c-8.402344 0-15 6.597656-15 15v301c0 8.398438 6.597656 15 15 15h482c8.402344 0 15-6.601562 15-15v-301c0-8.402344-6.597656-15-15-15zm0 0"/><path d="m271 149.480469c34.191406-6.96875 60-37.265625 60-73.480469 0-41.351562-33.648438-76-75-76s-75 34.648438-75 76c0 36.214844 25.808594 66.511719 60 73.480469v31.519531h30zm0 0"/></svg>