<svg id="Camada_1" data-name="Camada 1" xmlns="http://www.w3.org/2000/svg" viewBox="0 0 421.08 160.04">
    <defs>
        <style>
            .hertz-cls-1 {
                fill: #f1e835;
            }

            .hertz-cls-2 {
                fill: #282525;
            }
        </style>
    </defs>
    <title>hertz</title>
    <path class="hertz-cls-1"
        d="M455.79,386.9H69.35c1-4.62,1.94-9.25,3-13.87q15.75-72,31.47-143.95c.37-1.71,1-2.22,2.76-2.22q190.87.07,381.74,0a8.18,8.18,0,0,0,1,0c1.23-.17,1.3.35,1.05,1.41-1,4.12-1.84,8.27-2.75,12.41q-15,68.49-30,137C456.89,380.76,455.94,383.76,455.79,386.9ZM156.72,303.61c-4.79,0-9.59-.08-14.38,0-1.66,0-1.8-.46-1.49-1.89,2.73-12.67,5.39-25.37,8.11-38,.27-1.27-.14-1.46-1.28-1.45-5.17.05-10.35.06-15.53,0-1.12,0-1.46.38-1.68,1.43q-4.52,21.54-9.11,43.06c-3,14.18-6,28.38-9,42.56-.29,1.37-.06,1.74,1.41,1.71,5.13-.1,10.25-.08,15.37,0,1.21,0,1.56-.41,1.79-1.53,1.91-9.31,3.92-18.6,5.82-27.92.23-1.16.69-1.37,1.73-1.37q14.7,0,29.41,0c1.09,0,1.39.16,1.13,1.37-2,9.23-3.94,18.49-6,27.71-.33,1.49.06,1.76,1.46,1.74,5-.07,10-.09,15,0,1.33,0,1.65-.55,1.88-1.63q9-42.81,18.12-85.62c.23-1.12.13-1.54-1.17-1.52-4.85.07-9.7.13-14.54,0-1.8-.06-2.38.5-2.74,2.22-2.59,12.59-5.32,25.15-8,37.74-.24,1.14-.7,1.44-1.84,1.43C166.41,303.56,161.57,303.61,156.72,303.61Zm82.94,16.79c7.6,0,15.2,0,22.8,0,1,0,1.42-.22,1.68-1.27a52.13,52.13,0,0,0,1.23-20c-1.26-8.48-5.58-14.81-13.5-18.44-14.41-6.61-33.17-2-42.8,10.82-8.6,11.43-12.34,24.4-10.38,38.63,1.44,10.46,7.15,17.83,17.61,20.87,6.47,1.88,13.06,1.62,19.63.46a49.49,49.49,0,0,0,19.61-7.78c.91-.63,1-1.11.46-2.08q-3-4.94-5.81-10c-.55-1-.91-1.05-1.94-.49-7.09,3.81-14.56,6.16-22.76,5.12-5-.63-8.44-3.66-9.55-8.29a22.51,22.51,0,0,1-.43-5.91c.05-1.27.44-1.76,1.84-1.75C224.79,320.44,232.22,320.4,239.66,320.4Zm146,14c.75-.74,1.16-1.16,1.59-1.56q19.54-18.53,39.12-37a4.18,4.18,0,0,0,1.37-2.34q1.28-6.47,2.79-12.89c.32-1.37-.07-1.65-1.4-1.65q-27.1.06-54.2,0c-1.25,0-1.58.48-1.79,1.52-.91,4.52-1.8,9.05-2.84,13.55-.33,1.4,0,1.66,1.32,1.65,9.81,0,19.61,0,29.42,0h2.09c-.7.69-1.11,1.1-1.54,1.5q-19.44,18.4-38.89,36.79a4.49,4.49,0,0,0-1.42,2.5c-.88,4.3-1.76,8.61-2.73,12.9-.3,1.32-.15,1.72,1.36,1.72,16.64-.07,33.27,0,49.91,0h4.79c.61,0,1-.09,1.16-.83,1.06-5.21,2.17-10.42,3.3-15.76Zm-32.44,1.24a46.27,46.27,0,0,1-9.52.32c-6.45-.59-8.72-3.4-8-9.15.08-.59.1-1.21.23-1.79,2-9.36,3.95-18.71,5.88-28.07.22-1,.62-1.38,1.72-1.36,5.56.06,11.13,0,16.69,0,1,0,1.45-.21,1.66-1.27.91-4.64,1.9-9.26,2.93-13.87.27-1.2.08-1.6-1.28-1.58-5.39.08-10.79,0-16.19.07-1.51,0-1.68-.39-1.37-1.74,1-4.39,1.83-8.82,2.83-13.21.3-1.3.23-1.82-1.33-1.79-5.07.1-10.14.08-15.2,0-1.25,0-1.64.35-1.9,1.58-3.54,17.1-7.16,34.19-10.73,51.29-1.1,5.32-2.53,10.63-2.37,16.11.2,6.59,2.09,12.53,7.85,16.46,7.4,5,15.52,5.64,24,3.64.88-.2.93-.82,1.06-1.42C351.27,345.25,352.23,340.57,353.26,335.65Zm-41.8-40.32a19.81,19.81,0,0,1,2.79.18c1.07.22,1.46-.18,1.66-1.16,1-4.74,2-9.46,3-14.19.17-.8.12-1.25-.9-1.47-7.91-1.72-15.64-1.38-23.1,1.91-9.69,4.28-15.57,11.93-18.21,21.93-4.15,15.67-6.9,31.65-10.39,47.47-.3,1.37.62,1,1.21,1,5.23,0,10.47,0,15.69,0a1.38,1.38,0,0,0,1.63-1.32q3.15-15.24,6.37-30.47c1.05-4.94,1.9-9.93,3.73-14.67,1.59-4.14,4.33-7.09,8.7-8.34A26.91,26.91,0,0,1,311.46,295.33Zm124.2,38a12.4,12.4,0,0,0-11.54,9.42c-1.16,5.42,2.09,9.65,7.41,9.66,5.8,0,11.43-5.32,11.72-11.11C443.5,336.52,440.42,333.29,435.66,333.31Z"
        transform="translate(-69.35 -226.86)" />
    <path class="hertz-cls-2"
        d="M156.72,303.61c4.85,0,9.69-.05,14.54,0,1.14,0,1.6-.29,1.84-1.43,2.63-12.59,5.36-25.15,8-37.74.36-1.72.94-2.28,2.74-2.22,4.84.15,9.69.09,14.54,0,1.3,0,1.4.4,1.17,1.52q-9.09,42.79-18.12,85.62c-.23,1.08-.55,1.65-1.88,1.63-5-.11-10-.09-15,0-1.4,0-1.79-.25-1.46-1.74,2-9.22,3.94-18.48,6-27.71.26-1.21,0-1.37-1.13-1.37q-14.7,0-29.41,0c-1,0-1.5.21-1.73,1.37-1.9,9.32-3.91,18.61-5.82,27.92-.23,1.12-.58,1.55-1.79,1.53-5.12-.07-10.24-.09-15.37,0-1.47,0-1.7-.34-1.41-1.71,3.05-14.18,6-28.38,9-42.56q4.56-21.54,9.11-43.06c.22-1.05.56-1.44,1.68-1.43,5.18.06,10.36.05,15.53,0,1.14,0,1.55.18,1.28,1.45-2.72,12.67-5.38,25.37-8.11,38-.31,1.43-.17,1.93,1.49,1.89C147.13,303.53,151.93,303.61,156.72,303.61Z"
        transform="translate(-69.35 -226.86)" />
    <path class="hertz-cls-2"
        d="M239.66,320.4c-7.44,0-14.87,0-22.31,0-1.4,0-1.79.48-1.84,1.75a22.51,22.51,0,0,0,.43,5.91c1.11,4.63,4.56,7.66,9.55,8.29,8.2,1,15.67-1.31,22.76-5.12,1-.56,1.39-.51,1.94.49q2.82,5,5.81,10c.59,1,.45,1.45-.46,2.08a49.49,49.49,0,0,1-19.61,7.78c-6.57,1.16-13.16,1.42-19.63-.46-10.46-3-16.17-10.41-17.61-20.87-2-14.23,1.78-27.2,10.38-38.63,9.63-12.81,28.39-17.43,42.8-10.82,7.92,3.63,12.24,10,13.5,18.44a52.13,52.13,0,0,1-1.23,20c-.26,1.05-.71,1.27-1.68,1.27C254.86,320.38,247.26,320.4,239.66,320.4Zm-5.36-15.17H248c.73,0,1.18,0,1.28-1A10.31,10.31,0,0,0,241.8,293c-10.29-2.93-18.65,3.74-21.74,11.06-.46,1.08,0,1.15.86,1.15C225.38,305.21,229.84,305.23,234.3,305.23Z"
        transform="translate(-69.35 -226.86)" />
    <path class="hertz-cls-2"
        d="M385.7,334.41h33.41c-1.13,5.34-2.24,10.55-3.3,15.76-.15.74-.55.84-1.16.83h-4.79c-16.64,0-33.27,0-49.91,0-1.51,0-1.66-.4-1.36-1.72,1-4.29,1.85-8.6,2.73-12.9a4.49,4.49,0,0,1,1.42-2.5q19.47-18.37,38.89-36.79c.43-.4.84-.81,1.54-1.5h-2.09c-9.81,0-19.61,0-29.42,0-1.35,0-1.65-.25-1.32-1.65,1-4.5,1.93-9,2.84-13.55.21-1,.54-1.53,1.79-1.52q27.11.07,54.2,0c1.33,0,1.72.28,1.4,1.65q-1.51,6.42-2.79,12.89a4.18,4.18,0,0,1-1.37,2.34q-19.57,18.51-39.12,37C386.86,333.25,386.45,333.67,385.7,334.41Z"
        transform="translate(-69.35 -226.86)" />
    <path class="hertz-cls-2"
        d="M353.26,335.65c-1,4.92-2,9.6-3,14.28-.13.6-.18,1.22-1.06,1.42-8.51,2-16.63,1.4-24-3.64-5.76-3.93-7.65-9.87-7.85-16.46-.16-5.48,1.27-10.79,2.37-16.11,3.57-17.1,7.19-34.19,10.73-51.29.26-1.23.65-1.6,1.9-1.58,5.06.07,10.13.09,15.2,0,1.56,0,1.63.49,1.33,1.79-1,4.39-1.83,8.82-2.83,13.21-.31,1.35-.14,1.77,1.37,1.74,5.4-.1,10.8,0,16.19-.07,1.36,0,1.55.38,1.28,1.58-1,4.61-2,9.23-2.93,13.87-.21,1.06-.68,1.28-1.66,1.27-5.56,0-11.13,0-16.69,0-1.1,0-1.5.31-1.72,1.36C339.94,306.32,338,315.67,336,325c-.13.58-.15,1.2-.23,1.79-.74,5.75,1.53,8.56,8,9.15A46.27,46.27,0,0,0,353.26,335.65Z"
        transform="translate(-69.35 -226.86)" />
    <path class="hertz-cls-2"
        d="M311.46,295.33a26.91,26.91,0,0,0-7.84.89c-4.37,1.25-7.11,4.2-8.7,8.34-1.83,4.74-2.68,9.73-3.73,14.67q-3.22,15.22-6.37,30.47a1.38,1.38,0,0,1-1.63,1.32c-5.22-.06-10.46,0-15.69,0-.59,0-1.51.39-1.21-1,3.49-15.82,6.24-31.8,10.39-47.47,2.64-10,8.52-17.65,18.21-21.93,7.46-3.29,15.19-3.63,23.1-1.91,1,.22,1.07.67.9,1.47-1,4.73-2,9.45-3,14.19-.2,1-.59,1.38-1.66,1.16A19.81,19.81,0,0,0,311.46,295.33Z"
        transform="translate(-69.35 -226.86)" />
    <path class="hertz-cls-2"
        d="M435.66,333.31c4.76,0,7.84,3.21,7.59,8-.29,5.79-5.92,11.13-11.72,11.11-5.32,0-8.57-4.24-7.41-9.66A12.4,12.4,0,0,1,435.66,333.31Zm6.26,7.82a6,6,0,0,0-6.3-6.47c-5.45-.07-10.58,5.2-10.36,10.64a5.69,5.69,0,0,0,5.67,5.85C436.28,351.57,441.87,346.48,441.92,341.13Z"
        transform="translate(-69.35 -226.86)" />
    <path class="hertz-cls-1"
        d="M234.3,305.23c-4.46,0-8.92,0-13.38,0-.9,0-1.32-.07-.86-1.15,3.09-7.32,11.45-14,21.74-11.06a10.31,10.31,0,0,1,7.48,11.22c-.1,1-.55,1-1.28,1Z"
        transform="translate(-69.35 -226.86)" />
    <path class="hertz-cls-1"
        d="M441.92,341.13c-.05,5.35-5.64,10.44-11,10a5.69,5.69,0,0,1-5.67-5.85c-.22-5.44,4.91-10.71,10.36-10.64A6,6,0,0,1,441.92,341.13Zm-3.95-.64a2.17,2.17,0,0,0-2.18-2.14c-1.37-.14-2.75,0-4.12-.09-.75,0-.9.41-1,1-.47,2.37-1,4.73-1.47,7.09-.08.38-.45.95.31,1,.52,0,1.26.4,1.54-.45a8.69,8.69,0,0,0,.31-1.45c.08-.52.19-1,.87-1,.5,0,1,0,1.21.59s.46.88.6,1.35a1.49,1.49,0,0,0,2.27.85c.88-.42-.09-1.11-.31-1.59-.44-1-.81-1.65.52-2.3A3.15,3.15,0,0,0,438,340.49Z"
        transform="translate(-69.35 -226.86)" />
    <path class="hertz-cls-2"
        d="M438,340.49a3.15,3.15,0,0,1-1.46,2.91c-1.33.65-1,1.33-.52,2.3.22.48,1.19,1.17.31,1.59a1.49,1.49,0,0,1-2.27-.85c-.14-.47-.43-.89-.6-1.35s-.71-.57-1.21-.59c-.68,0-.79.44-.87,1a8.69,8.69,0,0,1-.31,1.45c-.28.85-1,.48-1.54.45-.76-.05-.39-.62-.31-1,.49-2.36,1-4.72,1.47-7.09.11-.6.26-1,1-1,1.37.05,2.75-.05,4.12.09A2.17,2.17,0,0,1,438,340.49Zm-4.68,2.32c1.28,0,2.55-.19,2.54-1.72,0-1.21-1.18-1-2-1.09-1.87-.21-1.44,1.35-1.62,2.24S432.92,342.64,433.29,342.81Z"
        transform="translate(-69.35 -226.86)" />
    <path class="hertz-cls-1"
        d="M433.29,342.81c-.37-.17-1.32.37-1.12-.57s-.25-2.45,1.62-2.24c.86.1,2-.12,2,1.09C435.84,342.62,434.57,342.81,433.29,342.81Z"
        transform="translate(-69.35 -226.86)" />
</svg>